<svg xmlns="http://www.w3.org/2000/svg" version="1.1" height="128" width="616" viewBox="0 0 616 128" class="diagram" text-anchor="middle" font-family="monospace" font-size="13px" stroke-linecap="round">
<path d="M 8,16 L 8,48" fill="none" stroke="black"/>
<path d="M 8,80 L 8,112" fill="none" stroke="black"/>
<path d="M 200,16 L 200,48" fill="none" stroke="black"/>
<path d="M 264,80 L 264,112" fill="none" stroke="black"/>
<path d="M 272,16 L 272,48" fill="none" stroke="black"/>
<path d="M 352,16 L 352,48" fill="none" stroke="black"/>
<path d="M 368,80 L 368,112" fill="none" stroke="black"/>
<path d="M 448,80 L 448,112" fill="none" stroke="black"/>
<path d="M 456,16 L 456,48" fill="none" stroke="black"/>
<path d="M 520,80 L 520,112" fill="none" stroke="black"/>
<path d="M 536,16 L 536,48" fill="none" stroke="black"/>
<path d="M 608,16 L 608,48" fill="none" stroke="black"/>
<path d="M 32,16 L 176,16" fill="none" stroke="black"/>
<path d="M 224,16 L 248,16" fill="none" stroke="black"/>
<path d="M 296,16 L 328,16" fill="none" stroke="black"/>
<path d="M 376,16 L 432,16" fill="none" stroke="black"/>
<path d="M 480,16 L 520,16" fill="none" stroke="black"/>
<path d="M 552,16 L 592,16" fill="none" stroke="black"/>
<path d="M 8,48 L 608,48" fill="none" stroke="black"/>
<path d="M 32,80 L 240,80" fill="none" stroke="black"/>
<path d="M 288,80 L 344,80" fill="none" stroke="black"/>
<path d="M 392,80 L 432,80" fill="none" stroke="black"/>
<path d="M 464,80 L 504,80" fill="none" stroke="black"/>
<path d="M 8,112 L 520,112" fill="none" stroke="black"/>
<g class="text">
<text x="20" y="20">63</text>
<text x="188" y="20">56</text>
<text x="212" y="20">55</text>
<text x="260" y="20">32</text>
<text x="284" y="20">31</text>
<text x="340" y="20">24</text>
<text x="364" y="20">23</text>
<text x="444" y="20">16</text>
<text x="468" y="20">15</text>
<text x="528" y="20">8</text>
<text x="544" y="20">7</text>
<text x="600" y="20">0</text>
<text x="104" y="36">backjumpCount(JIT VM)</text>
<text x="236" y="36">unused</text>
<text x="312" y="36">isBlock</text>
<text x="404" y="36">hasContext</text>
<text x="496" y="36">numArgs</text>
<text x="572" y="36">00000001</text>
<text x="20" y="84">31</text>
<text x="252" y="84">24</text>
<text x="276" y="84">23</text>
<text x="356" y="84">16</text>
<text x="380" y="84">15</text>
<text x="440" y="84">8</text>
<text x="456" y="84">7</text>
<text x="512" y="84">0</text>
<text x="136" y="100">backjumpCount(JIT VM)/isBlock</text>
<text x="316" y="100">hasContext</text>
<text x="408" y="100">numArgs</text>
<text x="484" y="100">00000001</text>
</g>
</svg>
